<svg enable-background="new 0 0 32 32" viewBox="0 0 32 32" xmlns="http://www.w3.org/2000/svg"><path d="m30 31.36h-28c-.199 0-.36-.161-.36-.36v-18c0-.199.161-.36.36-.36h11.64v-11.64c0-.199.161-.36.36-.36h16c.199 0 .36.161.36.36v30c0 .199-.161.36-.36.36zm-15.64-.72h15.28v-29.28h-15.28v11.64c0 .199-.161.36-.36.36h-11.64v17.28h7.28v-7.64c0-.199.161-.36.36-.36h4c.199 0 .36.161.36.36zm-4 0h3.28v-7.28h-3.28zm16-5.64h-.72v-2h.721zm-4 0h-.72v-2h.721zm-4 0h-.72v-2h.721zm-12 0h-.72v-2h.72zm20-6h-.72v-2h.721zm-4 0h-.72v-2h.721zm-4 0h-.72v-2h.721zm-4 0h-.72v-2h.72zm-4 0h-.72v-2h.72zm-4 0h-.72v-2h.72zm20-6h-.72v-2h.721zm-4 0h-.72v-2h.721zm-4 0h-.72v-2h.721zm8-6h-.72v-2h.721zm-4 0h-.72v-2h.721zm-4 0h-.72v-2h.721z"/><path d="m0 0h32v32h-32z" fill="none"/></svg>